<?xml version="1.0" standalone="no"?>
<!DOCTYPE svg PUBLIC "-//W3C//DTD SVG 1.1//EN" "http://www.w3.org/Graphics/SVG/1.1/DTD/svg11.dtd" >
<svg xmlns="http://www.w3.org/2000/svg">
<metadata></metadata>
<defs>
<font id="00810regular" horiz-adv-x="1024" >
<font-face units-per-em="2048" ascent="1638" descent="-410" />
<missing-glyph horiz-adv-x="586" />
<glyph horiz-adv-x="2048" />
<glyph horiz-adv-x="2048" />
<glyph unicode="&#xd;" horiz-adv-x="586" />
<glyph unicode=" "  horiz-adv-x="586" />
<glyph unicode="&#x09;" horiz-adv-x="586" />
<glyph unicode="&#xa0;" horiz-adv-x="586" />
<glyph unicode="!" horiz-adv-x="594" d="M199 0v233h196v-233h-196zM199 360v1096h196v-1096h-196z" />
<glyph unicode="&#x22;" horiz-adv-x="614" d="M90 881v555h139v-555h-139zM385 881v555h139v-555h-139z" />
<glyph unicode="#" horiz-adv-x="1575" d="M88 449l53 147h310l92 262h-330l51 146h332l162 454h166l-162 -454h256l164 454h164l-160 -454h301l-51 -146h-303l-93 -262h322l-51 -147h-322l-162 -453h-165l161 453h-258l-162 -453h-165l159 453h-309zM616 594h261l92 264h-260z" />
<glyph unicode="$" horiz-adv-x="1171" d="M136 432h185q0 -113 66 -179q60 -60 176 -60q106 0 168 64t62 171q0 34 -8 70q-7 32 -21 55q-46 75 -194 112l-36 9q-356 89 -356 375q0 155 78 259q82 110 231 138v211h179v-213q129 -19 207 -117q87 -109 87 -248h-192q0 82 -57 134.5t-140 52.5q-92 0 -146 -56.5 t-54 -148.5q0 -67 39.5 -113.5t170.5 -75.5q79 -17 119 -32q291 -107 291 -387q0 -163 -81 -284q-89 -132 -244 -155v-256h-179v246q-166 22 -261 142q-90 115 -90 286z" />
<glyph unicode="%" horiz-adv-x="1796" d="M82 1126q0 109 60.5 200.5t160.5 132.5q65 26 137 26q148 0 253.5 -103.5t105.5 -255.5q0 -162 -122 -270q-99 -88 -237 -88q-150 0 -252 104q-106 107 -106 254zM240 1126q0 -82 57.5 -139t140.5 -57q84 0 140.5 56.5t56.5 139.5t-57 140t-140 57t-140.5 -57t-57.5 -140 zM436 -31l781 1516h141l-776 -1516h-146zM997 330q0 149 104.5 253.5t254.5 104.5q151 0 254.5 -104.5t103.5 -253.5q0 -150 -103 -253q-106 -106 -255 -106q-109 0 -200 60.5t-132 160.5q-27 65 -27 138zM1155 330q0 -84 57.5 -141.5t141.5 -57.5q83 0 139.5 58t56.5 141 t-56.5 139.5t-139.5 56.5t-141 -56.5t-58 -139.5z" />
<glyph unicode="&#x26;" horiz-adv-x="1421" d="M131 406q0 246 275 417q-168 134 -168 301q0 152 102 251.5t254 99.5q136 0 236 -103t100 -239q0 -196 -232 -328l222 -209l141 362h213l-199 -499l342 -307l-127 -144l-297 266q-163 -303 -434 -303q-178 0 -303 128.5t-125 306.5zM336 410q0 -97 62 -164.5t159 -67.5 q176 0 283 234l-301 284q-203 -115 -203 -286zM434 1133q0 -104 135 -211q164 84 164 208q0 63 -42 108.5t-105 45.5q-65 0 -108.5 -43t-43.5 -108z" />
<glyph unicode="'" horiz-adv-x="317" d="M90 881v555h139v-555h-139z" />
<glyph unicode="(" horiz-adv-x="569" d="M125 195v679q0 451 391 611v-244q-115 -59 -155 -166q-29 -78 -29 -233v-590q0 -174 25 -254q39 -122 159 -188v-238q-217 88 -307 239q-84 141 -84 384z" />
<glyph unicode=")" horiz-adv-x="569" d="M51 -190q120 65 160 188q27 83 27 254v590q0 154 -30 233q-41 107 -157 166v244q393 -161 393 -611v-679q0 -243 -85 -384q-90 -151 -308 -239v238z" />
<glyph unicode="*" d="M109 1098l53 157l272 -94v295h154v-295l274 94l56 -157l-289 -78l196 -244l-135 -96l-178 254l-176 -254l-137 94l194 246z" />
<glyph unicode="+" horiz-adv-x="1706" d="M254 541v139h528v541h142v-541h528v-139h-528v-541h-142v541h-528z" />
<glyph unicode="," horiz-adv-x="586" d="M195 12v234h196v-215q0 -233 -196 -273v125q69 14 69 109v20h-69z" />
<glyph unicode="-" horiz-adv-x="678" d="M90 457v184h498v-184h-498z" />
<glyph unicode="." horiz-adv-x="586" d="M193 0v246h200v-246h-200z" />
<glyph unicode="/" horiz-adv-x="569" d="M-57 -190l479 1675h147l-477 -1675h-149z" />
<glyph unicode="0" horiz-adv-x="1171" d="M88 512v430q0 228 88 344q149 197 410 197q271 0 420 -211q57 -81 72 -218q5 -47 5 -104v-444q0 -223 -79 -332q-148 -203 -418 -203q-256 0 -414 197q-84 105 -84 344zM305 453q0 -113 35 -164q38 -55 101 -86t141 -31q282 0 282 311v488q0 138 -35 192 q-77 119 -245 119q-161 0 -240 -113q-39 -56 -39 -196v-520z" />
<glyph unicode="1" horiz-adv-x="1171" d="M244 1284v172h467v-1456h-213v1284h-254z" />
<glyph unicode="2" horiz-adv-x="1171" d="M123 0v203l518 497q201 201 201 322q0 113 -75.5 187.5t-188.5 74.5q-122 0 -189 -77t-67 -214v-16h-199v4q0 222 124 360q129 142 349 142q190 0 321.5 -131.5t131.5 -321.5q0 -203 -211 -401l-453 -426h659v-203h-921z" />
<glyph unicode="3" horiz-adv-x="1171" d="M104 446h197q0 -116 74.5 -197t189.5 -81q121 0 201 81t80 202q0 135 -82 210q-87 79 -234 74l-32 -1h-19v197l16 -1h27q226 0 226 182q0 75 -47 126.5t-121 51.5q-123 0 -165 -103q-14 -33 -14 -75h-192q0 163 109 271q103 102 268 102q151 0 256.5 -105.5t105.5 -255.5 q0 -177 -141 -272q242 -92 242 -389q0 -205 -132 -347q-136 -145 -339 -145q-216 0 -343 126q-131 130 -131 349z" />
<glyph unicode="4" horiz-adv-x="1171" d="M88 254v186l641 1016h203v-1016h147v-186h-147v-254h-203v254h-641zM293 440h436v715z" />
<glyph unicode="5" horiz-adv-x="1171" d="M78 444h205q15 -119 93 -193.5t197 -74.5q134 0 221 91.5t87 226.5q0 137 -87 221t-225 84q-166 0 -243 -125l-181 39l136 743h673v-205h-524l-70 -342q51 46 110.5 68t137.5 22q208 0 348 -151q136 -146 136 -356q0 -227 -152.5 -374t-380.5 -147q-211 0 -341 127 q-140 136 -140 346z" />
<glyph unicode="6" horiz-adv-x="1171" d="M80 467q0 186 217 511l319 478h232l-330 -495q62 24 113 24q196 0 329 -148q130 -143 130 -341q0 -134 -74 -269q-141 -256 -434 -256q-212 0 -353 147q-149 154 -149 349zM279 498q0 -130 86 -226t215 -96q133 0 217 88.5t84 222.5q0 132 -82 221t-213 89 q-127 0 -217 -86.5t-90 -212.5z" />
<glyph unicode="7" horiz-adv-x="1171" d="M197 1255v201h819v-221l-533 -1235h-223l555 1255h-618z" />
<glyph unicode="8" horiz-adv-x="1171" d="M133 438q0 258 215 369q-151 103 -151 291q0 162 111.5 273.5t273.5 111.5q167 0 280 -110t113 -277q0 -188 -158 -289q221 -97 221 -361q0 -206 -127 -339q-129 -136 -333 -136q-191 0 -320 139q-125 135 -125 328zM332 440q0 -113 67 -190q70 -80 181 -80 q113 0 185.5 76.5t72.5 189.5q0 117 -68 191.5t-184 74.5t-185 -72.5t-69 -189.5zM403 1100q0 -88 46 -142q49 -57 135 -57q88 0 136 53t48 142q0 82 -49.5 138t-130.5 56q-80 0 -132.5 -54.5t-52.5 -135.5z" />
<glyph unicode="9" horiz-adv-x="1171" d="M78 958q0 136 76 273q141 254 432 254q212 0 353 -146q71 -74 111 -166t40 -184q0 -165 -210 -501l-5 -8l-320 -480h-236l330 494q-64 -25 -112 -25q-196 0 -330 148q-129 143 -129 341zM287 967q0 -134 82 -221t215 -87q127 0 217 85.5t90 211.5q0 132 -84 225 q-87 97 -217 97q-139 0 -221 -86t-82 -225z" />
<glyph unicode=":" horiz-adv-x="592" d="M195 0v246h202v-246h-202zM195 807v246h202v-246h-202z" />
<glyph unicode=";" horiz-adv-x="592" d="M197 10v236h200v-217q0 -230 -198 -271v125q53 11 65 63q4 17 4 44v20h-71zM197 807v246h200v-246h-200z" />
<glyph unicode="&#x3c;" horiz-adv-x="1706" d="M264 547v129l1178 483v-153l-969 -396l969 -393v-154z" />
<glyph unicode="=" horiz-adv-x="1706" d="M254 342v139h1198v-139h-1198zM254 739v140h1198v-140h-1198z" />
<glyph unicode="&#x3e;" horiz-adv-x="1706" d="M264 63v154l971 393l-971 396v153l1178 -483v-129z" />
<glyph unicode="?" horiz-adv-x="995" d="M23 1036q0 194 126 323q123 126 308 126t310.5 -120.5t125.5 -305.5q0 -176 -174 -350l-14 -14q-84 -84 -118 -158q-37 -81 -37 -156h-201q0 204 140 375q19 23 70 73q121 118 121 226q0 106 -66 170.5t-172 64.5q-98 0 -159 -69q-64 -72 -64 -184zM348 0v236h197v-236 h-197z" />
<glyph unicode="@" horiz-adv-x="2048" d="M106 522q0 334 203 582q297 362 807 362q340 0 563 -172q265 -205 265 -514q0 -352 -248 -551q-66 -53 -148.5 -82.5t-167.5 -29.5q-200 0 -200 157v19q-107 -174 -301 -174q-314 0 -314 332q0 220 126 380q137 173 351 173q83 0 144.5 -37.5t97.5 -112.5l57 115h132 l-154 -635q-3 -42 26 -69q25 -25 74 -25q51 0 102 26q56 28 107 76q170 157 170 420q0 279 -211 438q-191 143 -479 143q-267 0 -457.5 -114.5t-295.5 -300t-105 -408.5q0 -344 254 -538q210 -160 524 -160q346 0 621 190l55 -82q-297 -223 -664 -223q-384 0 -628 187 q-306 234 -306 628zM725 446q0 -219 186 -219q102 0 181 75q72 69 98 173l59 236q-34 184 -198 184q-156 0 -248 -153q-78 -130 -78 -296z" />
<glyph unicode="A" horiz-adv-x="1233" d="M-63 0l569 1456h205l569 -1456h-231l-160 424h-565l-164 -424h-223zM399 629h414l-205 553z" />
<glyph unicode="B" horiz-adv-x="1053" d="M127 0v1456h313q475 0 475 -399q0 -181 -155 -273q111 -33 173 -129q58 -91 58 -211q0 -216 -143 -340q-120 -104 -385 -104h-336zM334 197h166q284 0 284 223q0 252 -284 252h-166v-475zM336 846h67q142 0 210 36q92 49 92 177q0 198 -256 198h-113v-411z" />
<glyph unicode="C" horiz-adv-x="1540" d="M61 737q0 311 228 537q213 211 514 211q221 0 388 -102q173 -106 261 -304h-248q-140 195 -403 195q-213 0 -361 -152q-159 -163 -159 -387q0 -238 147 -391q158 -164 373 -164q255 0 391 185h260q-195 -394 -651 -394q-325 0 -551 250q-189 209 -189 516z" />
<glyph unicode="D" horiz-adv-x="1384" d="M117 0v1456h469q328 0 529.5 -202.5t201.5 -530.5q0 -385 -293 -594q-109 -78 -237 -107q-100 -22 -261 -22h-409zM322 195h256q244 0 385 141t141 385q0 257 -156 399q-150 137 -409 137h-217v-1062z" />
<glyph unicode="E" horiz-adv-x="1014" d="M127 0v1456h756v-194h-545v-435h545v-190h-545v-436h545v-201h-756z" />
<glyph unicode="F" horiz-adv-x="977" d="M123 0v1456h717v-194h-508v-435h508v-190h-508v-637h-209z" />
<glyph unicode="G" horiz-adv-x="1612" d="M61 737q0 312 228 537q214 211 528 211q218 0 382 -100q171 -103 257 -298h-260q-144 187 -395 187q-213 0 -361 -152q-159 -163 -159 -387q0 -238 147 -391q158 -164 373 -164q333 0 502 350h-660v205h901q0 -326 -221 -553q-206 -211 -522 -211q-325 0 -551 250 q-189 209 -189 516z" />
<glyph unicode="H" horiz-adv-x="1270" d="M127 0v1456h211v-618h594v618h211v-1456h-211v631h-594v-631h-211z" />
<glyph unicode="I" horiz-adv-x="465" d="M127 0v1456h211v-1456h-211z" />
<glyph unicode="J" horiz-adv-x="905" d="M4 329l208 1q20 -162 171 -162q136 0 176 121q19 60 19 239v928h210v-956q0 -256 -63 -353q-114 -176 -346 -176q-171 0 -273 97t-102 261z" />
<glyph unicode="K" horiz-adv-x="1118" d="M127 0v1456h211v-1456h-211zM346 723l549 733h254l-565 -723l551 -733h-265z" />
<glyph unicode="L" horiz-adv-x="858" d="M127 0v1456h211v-1255h477v-201h-688z" />
<glyph unicode="M" horiz-adv-x="1724" d="M127 0v1456h313l422 -1126l422 1126h309v-1456h-198l14 1264l-473 -1264h-150l-471 1264l15 -1264h-203z" />
<glyph unicode="N" horiz-adv-x="1384" d="M127 0v1456h217l715 -1102l-10 1102h208v-1456h-202l-731 1135l14 -1135h-211z" />
<glyph unicode="O" horiz-adv-x="1612" d="M61 737q0 313 228 537q215 211 514 211q303 0 522 -213q223 -217 223 -535q0 -311 -192 -520q-226 -246 -555 -246q-325 0 -551 250q-189 209 -189 516zM281 735q0 -238 147 -391q158 -164 373 -164q232 0 383 165q147 160 147 394q0 206 -143 361q-160 174 -387 174 q-213 0 -361 -152q-159 -163 -159 -387z" />
<glyph unicode="P" horiz-adv-x="1053" d="M127 0v1456h338q144 0 217 -14q185 -35 276 -198q54 -99 54 -214q0 -215 -150 -335q-137 -109 -358 -109h-168v-586h-209zM336 780h153q310 0 310 238q0 244 -303 244h-160v-482z" />
<glyph unicode="Q" horiz-adv-x="1612" d="M61 737q0 311 228 537q213 211 514 211q305 0 523 -215q224 -221 224 -551q0 -282 -182 -490q80 -36 168 -36h27v-203h-19q-165 0 -336 100q-184 -119 -405 -119q-263 0 -461 160q-281 226 -281 606zM279 727q0 -42 12 -110q4 -22 10 -42q96 48 240 48q335 0 639 -279 q151 170 151 395q0 206 -143 361q-161 174 -387 174q-159 0 -290.5 -92.5t-190.5 -241.5q-41 -103 -41 -213zM375 414q165 -234 438 -234q49 0 99 11q56 12 108 34q-230 211 -502 211q-77 0 -143 -22z" />
<glyph unicode="R" horiz-adv-x="1157" d="M127 0v1456h420q248 0 386 -109q152 -121 152 -362q0 -178 -116 -298q-124 -128 -297 -128l413 -559h-264l-483 676v-676h-211zM338 700h108q433 0 433 287q0 159 -118 224q-90 49 -265 49h-158v-560z" />
<glyph unicode="S" horiz-adv-x="973" d="M50 420h189q0 -108 67 -181q61 -67 161 -67q111 0 175.5 68.5t64.5 179.5q0 99 -47 153q-57 63 -202 101l-27 7q-251 65 -319 264q-20 57 -20 120q0 184 109.5 301t292.5 117q166 0 269 -104q114 -115 114 -283h-197q0 80 -59 140q-53 54 -134 54q-90 0 -144 -63 q-52 -59 -52 -150q0 -67 42 -117t183 -87q33 -8 100 -29q293 -111 293 -404q0 -205 -115 -334q-120 -135 -323 -135q-192 0 -309 130q-112 124 -112 319z" />
<glyph unicode="T" horiz-adv-x="786" d="M16 1260v196h756v-196h-272v-1260h-211v1260h-273z" />
<glyph unicode="U" horiz-adv-x="1157" d="M113 532v924h211v-926q0 -174 43 -250q59 -102 217 -102q151 0 207 106q40 77 40 246v926h211v-924q0 -257 -71 -364q-131 -197 -383 -197q-139 0 -235.5 47t-166.5 148q-73 106 -73 366z" />
<glyph unicode="V" horiz-adv-x="1161" d="M-43 1456h223l400 -1085l401 1085h221l-559 -1456h-125z" />
<glyph unicode="W" horiz-adv-x="1726" d="M-31 1456h215l316 -1122l284 1122h158l283 -1122l315 1122h215l-440 -1456h-191l-262 1087l-264 -1087h-188z" />
<glyph unicode="X" horiz-adv-x="1200" d="M-6 0l485 735l-473 721h246l348 -563l344 563h250l-473 -721l483 -735h-246l-358 569l-362 -569h-244z" />
<glyph unicode="Y" horiz-adv-x="1010" d="M-49 1456h235l320 -700l319 700h234l-451 -932v-524h-211v537z" />
<glyph unicode="Z" horiz-adv-x="973" d="M39 0v207l637 1044h-596v205h840v-184l-660 -1071h672v-201h-893z" />
<glyph unicode="[" horiz-adv-x="569" d="M125 -414v1870h385v-160h-193v-1548h193v-162h-385z" />
<glyph unicode="\" horiz-adv-x="569" d="M0 1485h147l480 -1675h-148z" />
<glyph unicode="]" horiz-adv-x="569" d="M59 -252h191v1548h-191v160h385v-1870h-385v162z" />
<glyph unicode="^" horiz-adv-x="2048" d="M420 901l510 557h186l510 -557h-180l-422 420l-424 -420h-180z" />
<glyph unicode="_" d="M0 -340h1024v-143h-1024v143z" />
<glyph unicode="`" d="M250 1589h201l204 -348h-120z" />
<glyph unicode="a" horiz-adv-x="1319" d="M61 555q0 237 158 403q162 170 406 170q226 0 381 -161v133h200v-1100h-200v135q-154 -160 -369 -160q-249 0 -412.5 165t-163.5 415zM266 557q0 -165 108.5 -279t272.5 -114q149 0 259 115t110 264q0 158 -108 275.5t-265 117.5q-159 0 -268 -110t-109 -269z" />
<glyph unicode="b" horiz-adv-x="1319" d="M111 0v1456h198v-489q157 161 383 161q244 0 406 -170q159 -167 159 -403q0 -251 -163 -415.5t-414 -164.5q-215 0 -369 160v-135h-200zM303 543q0 -150 110 -264.5t259 -114.5q163 0 271 114.5t108 278.5q0 157 -110 268t-267 111q-152 0 -261.5 -114.5t-109.5 -278.5z " />
<glyph unicode="c" horiz-adv-x="1241" d="M57 549q0 232 156 399q172 185 418 185q193 0 332 -108q135 -104 198 -290h-217q-101 201 -330 201q-154 0 -255 -117q-97 -112 -97 -268q0 -162 100 -271q103 -114 263 -114q220 0 319 209h217q-142 -404 -536 -404q-245 0 -404 170q-79 84 -121.5 189t-42.5 219z" />
<glyph unicode="d" horiz-adv-x="1319" d="M61 555q0 237 158 403q162 170 406 170q224 0 383 -161v489h198v-1456h-200v135q-154 -160 -369 -160q-249 0 -412.5 165t-163.5 415zM266 557q0 -165 108.5 -279t272.5 -114q149 0 259 115t110 264q0 158 -108 275.5t-265 117.5q-159 0 -268 -110t-109 -269z" />
<glyph unicode="e" horiz-adv-x="1245" d="M55 551q0 230 156 401q165 181 410 181q304 0 475 -256q46 -69 71 -165q23 -89 23 -204v-31h-926q24 -137 123.5 -223t237.5 -86q207 0 307 180h223q-155 -377 -530 -377q-243 0 -406 172q-78 82 -121 188t-43 220zM270 655h703q-35 132 -122 206q-91 79 -224 79 t-228 -79q-92 -75 -129 -206z" />
<glyph unicode="f" horiz-adv-x="569" d="M41 928v172h125v33q0 340 375 340v-183h-17q-164 0 -164 -174v-16h181v-172h-172v-928h-197v928h-131z" />
<glyph unicode="g" horiz-adv-x="1319" d="M61 555q0 237 158 403q162 170 406 170q224 0 383 -161v133h198v-918q0 -277 -139 -439q-148 -173 -420 -173q-183 0 -316 85q-137 89 -198 257h211q92 -158 291 -158q168 0 269.5 100t101.5 267v14q-154 -160 -369 -160q-249 0 -412.5 165t-163.5 415zM266 557 q0 -165 108.5 -279t272.5 -114q149 0 259 115t110 264q0 158 -108 275.5t-265 117.5q-159 0 -268 -110t-109 -269z" />
<glyph unicode="h" horiz-adv-x="1157" d="M117 0v1456h198v-481q97 143 303 143q211 0 322 -141q100 -128 100 -346v-631h-198v567q0 361 -252 361q-161 0 -234 -140q-41 -79 -41 -288v-500h-198z" />
<glyph unicode="i" horiz-adv-x="432" d="M117 0v1100h196v-1100h-196zM117 1229v227h196v-227h-196z" />
<glyph unicode="j" horiz-adv-x="455" d="M-6 -160q87 0 113 37q22 30 22 123v1100h197v-1110q0 -186 -67 -266q-68 -81 -200 -81q-11 0 -22 1l-43 2v194zM129 1229v227h197v-227h-197z" />
<glyph unicode="k" horiz-adv-x="977" d="M117 0v1456h196v-866l392 510h231l-404 -522l478 -578h-254l-443 559v-559h-196z" />
<glyph unicode="l" horiz-adv-x="432" d="M117 0v1456h196v-1456h-196z" />
<glyph unicode="m" horiz-adv-x="1778" d="M119 0v1100h176v-129q108 147 283 147q230 0 331 -190q100 190 340 190q193 0 304 -128q106 -122 106 -318v-672h-199v641q0 297 -233 297q-147 0 -202 -115q-38 -80 -38 -248v-575h-192v555q0 383 -238 383q-250 0 -250 -375v-563h-188z" />
<glyph unicode="n" horiz-adv-x="1176" d="M117 0v1100h190v-125q120 143 307 143q224 0 339 -136q108 -126 108 -355v-627h-199v584q0 344 -266 344q-169 0 -235 -138q-46 -97 -46 -290v-500h-198z" />
<glyph unicode="o" horiz-adv-x="1241" d="M53 549q0 238 158 404q172 182 401 182q242 0 409 -171t167 -401q0 -309 -242 -486q-53 -39 -101 -61q-102 -47 -222 -47q-243 0 -406 172q-78 82 -121 188t-43 220zM258 551q0 -162 101 -272q103 -113 264 -113q159 0 261 115q99 111 99 272q0 163 -99 272 q-102 113 -263 113q-159 0 -263 -115q-100 -111 -100 -272z" />
<glyph unicode="p" horiz-adv-x="1319" d="M111 -356v1456h200v-135q153 159 369 159q249 0 413 -165t164 -414q0 -236 -160 -405t-405 -169q-223 0 -383 162v-489h-198zM303 557q0 -159 105 -274q109 -119 266 -119q158 0 267.5 110.5t109.5 268.5q0 164 -108 278.5t-271 114.5q-149 0 -259 -114.5t-110 -264.5z " />
<glyph unicode="q" horiz-adv-x="1319" d="M61 545q0 251 163.5 415t414.5 164q212 0 369 -159v135h200v-1456h-200v489q-156 -162 -381 -162q-244 0 -405 169t-161 405zM268 543q0 -158 109.5 -268.5t267.5 -110.5q151 0 261 115t110 278q0 150 -109.5 264.5t-259.5 114.5q-163 0 -271 -114.5t-108 -278.5z" />
<glyph unicode="r" horiz-adv-x="592" d="M119 0v1100h186v-127q97 145 260 145v-207q-125 0 -191 -79q-57 -68 -57 -220v-612h-198z" />
<glyph unicode="s" horiz-adv-x="797" d="M41 356h186q0 -82 43 -138q48 -62 127 -62q68 0 113 41.5t45 109.5q0 57 -30 97q-34 43 -103 69l-68 26q-118 45 -149 70q-115 92 -115 244q0 135 93.5 228.5t228.5 93.5q215 0 291 -183q24 -58 24 -131h-190q0 56 -40 95q-35 34 -94 34q-53 0 -88.5 -37t-35.5 -90 q0 -90 160 -151l71 -27q122 -46 179 -126q54 -76 54 -204q0 -150 -100.5 -247t-251.5 -97q-153 0 -247 103q-103 113 -103 282z" />
<glyph unicode="t" horiz-adv-x="563" d="M29 920v180h155v356h197v-356h156v-180h-156v-920h-197v920h-155z" />
<glyph unicode="u" horiz-adv-x="1157" d="M111 467v633h198v-576q0 -356 252 -356q162 0 236 141q20 38 31 100q10 57 10 187v504h196v-1100h-190v123q-114 -148 -297 -148q-217 0 -331 140q-105 130 -105 352z" />
<glyph unicode="v" horiz-adv-x="1014" d="M4 1100h213l289 -803l297 803h209l-441 -1100h-149z" />
<glyph unicode="w" horiz-adv-x="1460" d="M12 1100h211l226 -727l223 727h121l221 -727l227 727h209l-383 -1100h-111l-227 745l-225 -745h-111z" />
<glyph unicode="x" horiz-adv-x="934" d="M-20 0l372 571l-329 529h221l229 -377l234 377h229l-348 -522l352 -578h-221l-254 416l-266 -416h-219z" />
<glyph unicode="y" horiz-adv-x="1049" d="M6 1100h213l297 -819l322 819h213l-592 -1456h-209l153 387z" />
<glyph unicode="z" horiz-adv-x="825" d="M20 0v160l531 760h-467v180h666v-203l-496 -711h526v-186h-760z" />
<glyph unicode="{" d="M168 457v149l45 -2q123 -6 183 60q55 60 55 208v246q0 118 11 170q21 95 89 137q42 26 108 39q63 13 170 13h37v-150h-41q-125 0 -166 -53q-36 -45 -36 -176v-242q0 -143 -34 -208q-43 -83 -167 -118q124 -30 167 -116q34 -66 34 -209v-242q0 -132 36 -177 q41 -52 168 -52h39v-148h-43q-191 0 -272 49q-56 34 -78 96.5t-22 211.5v245q0 149 -55 210q-60 67 -185 61z" />
<glyph unicode="|" d="M438 -483v2048h150v-2048h-150z" />
<glyph unicode="}" d="M160 -266h39q126 0 168 53q36 46 36 178v240q0 143 34 208q43 84 167 117q-123 33 -167 118q-34 66 -34 208v242q0 131 -37 177q-42 52 -167 52h-39v150h37q105 0 171 -13q144 -29 184 -135q23 -64 23 -211v-246q0 -146 54 -207q59 -67 184 -61l45 2v-149l-43 2 q-127 6 -186 -60q-54 -61 -54 -211v-245q0 -120 -11 -170q-21 -96 -89 -138q-81 -49 -272 -49h-43v148z" />
<glyph unicode="~" horiz-adv-x="1706" d="M178 451v155q212 144 387 144q58 0 128 -14t163 -48l47 -17q158 -57 240 -57q168 0 387 156v-156q-153 -106 -293 -132q-49 -9 -96 -9q-92 0 -256 58l-49 17q-180 60 -273 60q-84 0 -175 -37t-210 -120z" />
<glyph unicode="&#xa1;" horiz-adv-x="594" d="M199 0v1096h196v-1096h-196zM199 1223v233h196v-233h-196z" />
<glyph unicode="&#xa2;" horiz-adv-x="1171" d="M59 723q0 217 120 372q123 159 333 203v211h168v-209q317 -39 430 -391h-209q-92 203 -311 203q-151 0 -247 -122q-89 -113 -89 -267q0 -157 93 -267q98 -116 253 -116q212 0 301 209h209q-111 -349 -430 -402v-229h-168v232q-202 37 -330 203q-123 161 -123 370z" />
<glyph unicode="&#xa3;" horiz-adv-x="1171" d="M111 662v190h108q-23 52 -33 92.5t-10 87.5q0 183 141 316t340 133q174 0 293 -106q115 -103 150 -277h-215q-54 178 -238 178q-114 0 -185 -73t-71 -187q0 -76 43 -164h449v-190h-320q76 -146 76 -254q0 -99 -40 -170q-12 -22 -34 -48l19 -3l32 -1h33q287 0 287 224v31 q-5 24 -7 45q-1 9 -7 34h204l10 -56l3 -46q7 -106 -50 -215q-50 -98 -139 -150q-93 -55 -383 -55h-440v197h227q84 84 84 198q0 123 -108 269h-219z" />
<glyph unicode="&#xa4;" horiz-adv-x="1241" d="M80 428l207 205q-84 107 -84 252q0 139 84 252l-207 206l82 80l205 -204q117 86 254 86q136 0 256 -86l204 204l82 -80l-205 -206q82 -109 82 -252q0 -147 -82 -252l205 -205l-82 -82l-204 205q-117 -86 -254 -86q-146 0 -256 86l-205 -205zM319 887q0 -127 88.5 -216 t215.5 -89q126 0 214.5 89.5t88.5 215.5t-88.5 214.5t-214.5 88.5t-215 -88.5t-89 -214.5z" />
<glyph unicode="&#xa5;" horiz-adv-x="1171" d="M35 1448h233l320 -696l315 696h232l-226 -461h170v-143h-239l-82 -166h321v-141h-391v-537h-209v537h-391v141h322l-82 166h-240v143h170z" />
<glyph unicode="&#xa6;" d="M438 -350v758h150v-758h-150zM438 674v758h150v-758h-150z" />
<glyph unicode="&#xa7;" d="M80 684q0 168 178 287q-92 78 -92 200q0 143 98 230q94 84 238 84q157 0 249 -81q97 -85 97 -239v-10h-170q0 78 -49 128t-127 50q-158 0 -158 -137q0 -71 80 -132q32 -25 141 -83l176 -94q203 -108 203 -299q0 -89 -51 -165t-133 -112q102 -88 102 -217 q0 -146 -110 -236q-102 -83 -252 -83q-158 0 -252 88q-98 90 -98 246v4h174v-11q0 -172 192 -172q73 0 120 35q52 39 52 109q0 72 -82 139q-41 33 -143 88l-182 98q-201 108 -201 285zM258 737q0 -69 59 -123q31 -28 119 -79l221 -127q103 58 103 157q0 105 -178 203 l-217 119q-107 -61 -107 -150z" />
<glyph unicode="&#xa8;" d="M242 1300v209h184v-209h-184zM598 1300v209h184v-209h-184z" />
<glyph unicode="&#xa9;" horiz-adv-x="1706" d="M117 727q0 305 219 524q213 213 516 213q308 0 523.5 -214t215.5 -523q0 -308 -213 -516q-227 -221 -526 -221t-516 218q-109 108 -164 239t-55 280zM213 727q0 -262 189.5 -450.5t451.5 -188.5q260 0 455 191q184 180 184 448q0 270 -185 454q-190 187 -454 187 q-267 0 -450 -185q-191 -193 -191 -456zM463 733q0 191 100 314q108 131 295 131q133 0 227 -69q102 -74 115 -202h-147q-25 160 -205 160q-121 0 -180 -116q-45 -90 -45 -224q0 -136 49 -223q61 -109 186 -109q173 0 205 176h145q0 -122 -108 -211q-98 -81 -248 -81 q-193 0 -296 134q-93 120 -93 320z" />
<glyph unicode="&#xaa;" horiz-adv-x="989" d="M47 1075q0 164 119 283t303 119q172 0 285 -115v94h151v-770h-151v94q-114 -110 -277 -110q-183 0 -304 110q-126 114 -126 295zM201 1075q0 -118 82.5 -196t201.5 -78q109 0 193 79t84 187q0 114 -83 194t-196 80q-116 0 -199 -75.5t-83 -190.5z" />
<glyph unicode="&#xab;" horiz-adv-x="1032" d="M127 551l248 311h149l-241 -313l241 -311h-149zM481 551l248 311h152l-244 -313l244 -311h-152z" />
<glyph unicode="&#xac;" horiz-adv-x="1706" d="M254 721v139h1198v-502h-137v363h-1061z" />
<glyph unicode="&#xad;" horiz-adv-x="678" d="M90 457v184h498v-184h-498z" />
<glyph unicode="&#xae;" horiz-adv-x="1706" d="M117 727q0 220 126 410.5t329 273.5q131 53 280 53q151 0 286 -56q169 -70 286 -214t153 -323q14 -70 14 -144q0 -312 -216 -520q-225 -217 -523 -217q-300 0 -520 221q-215 216 -215 516zM213 727q0 -259 188.5 -449t446.5 -190q193 0 358 107t239 283q48 114 48 243 q0 274 -182 459q-187 188 -457 188q-268 0 -446 -182q-195 -199 -195 -459zM557 324v835h315q349 0 349 -229q0 -184 -191 -225l187 -381h-177l-170 356h-155v-356h-158zM715 780h133q211 0 211 133q0 76 -51 110t-164 34h-129v-277z" />
<glyph unicode="&#xaf;" d="M242 1335v140h540v-140h-540z" />
<glyph unicode="&#xb0;" horiz-adv-x="674" d="M49 1167q0 121 84 205t205 84q119 0 203 -85t84 -204t-85 -202.5t-204 -83.5q-121 0 -204 82.5t-83 203.5zM143 1169q0 -81 57 -138.5t138 -57.5t136.5 57.5t55.5 138.5q0 82 -55 137.5t-137 55.5t-138.5 -55.5t-56.5 -137.5z" />
<glyph unicode="&#xb1;" horiz-adv-x="1706" d="M254 29v141h1198v-141h-1198zM254 713v139h528v340h142v-340h528v-139h-528v-340h-142v340h-528z" />
<glyph unicode="&#xb2;" horiz-adv-x="774" d="M82 582v120l339 298q134 100 134 194q0 70 -51.5 114t-122.5 44q-168 0 -168 -174v-11h-131q0 139 85.5 221t225.5 82q121 0 208 -74q91 -77 91 -196q0 -123 -139 -242l-299 -256h436v-120h-608z" />
<glyph unicode="&#xb3;" horiz-adv-x="774" d="M70 850h128q0 -73 51 -120.5t124 -47.5q77 0 131.5 47t54.5 123q0 170 -209 170h-35l1 119l10 -2h18q150 0 150 110q0 46 -32.5 76.5t-78.5 30.5q-109 0 -119 -106h-127q0 102 75 164q71 59 175 59q96 0 166 -60q74 -64 74 -158q0 -103 -95 -161q160 -56 160 -234 q0 -128 -91 -211.5t-220 -83.5q-143 0 -227 76t-84 209z" />
<glyph unicode="&#xb4;" d="M369 1241l204 348h201l-285 -348h-120z" />
<glyph unicode="&#xb6;" d="M66 1130q0 165 116 260q108 89 277 89h499v-86h-120v-1393h-111v1393h-176v-1393h-113v782q-162 0 -271 102q-101 94 -101 246z" />
<glyph unicode="&#xb7;" horiz-adv-x="586" d="M180 729q0 46 33.5 78.5t79.5 32.5t78 -32.5t32 -78.5q0 -47 -31.5 -80t-78.5 -33q-46 0 -79.5 33.5t-33.5 79.5z" />
<glyph unicode="&#xb8;" d="M256 -326q167 -39 246 -39q121 0 121 82q0 86 -134 86h-31l-22 -1v198h76v-102h29q223 0 223 -181q0 -188 -250 -188q-103 0 -258 45v100z" />
<glyph unicode="&#xb9;" horiz-adv-x="772" d="M160 1352v104h309v-874h-141v770h-168z" />
<glyph unicode="&#xba;" horiz-adv-x="932" d="M41 1071q0 86 29 154q65 152 228 222q80 34 161 34q180 0 305 -118q127 -122 127 -282q0 -170 -115 -286q-128 -129 -309 -129q-182 0 -302 117q-124 119 -124 288zM195 1071q0 -116 78 -192t194 -76t193 77t77 193q0 117 -77.5 193.5t-194.5 76.5q-116 0 -193 -78 t-77 -194z" />
<glyph unicode="&#xbb;" horiz-adv-x="1032" d="M152 238l243 311l-243 313h151l248 -311l-248 -313h-151zM508 238l242 311l-242 313h149l248 -311l-248 -313h-149z" />
<glyph unicode="&#xbc;" horiz-adv-x="1819" d="M154 1360v96h295v-815h-136v719h-159zM395 -29l881 1514h143l-878 -1514h-146zM1135 141v105l403 569h129v-569h92v-105h-92v-141h-129v141h-403zM1264 246h274v401z" />
<glyph unicode="&#xbd;" horiz-adv-x="1819" d="M154 1360v96h295v-815h-136v719h-159zM395 -29l881 1514h143l-878 -1514h-146zM1157 0v113l324 276q129 129 129 182q0 67 -50 109q-48 39 -116 39q-162 0 -162 -162v-10h-125q0 130 84 207q81 75 213 75q114 0 198 -67q89 -73 89 -184q0 -115 -133 -226l-287 -239h416 v-113h-580z" />
<glyph unicode="&#xbe;" horiz-adv-x="1819" d="M66 891h124q0 -67 50 -113q47 -43 116 -43q72 0 122 42q54 45 54 116q0 75 -51 118q-57 46 -147 42l-21 -1l-12 -1v112q8 0 12 -2h17q141 0 141 103q0 43 -31.5 71.5t-74.5 28.5q-48 0 -79 -26q-34 -28 -34 -74h-121q0 97 72 155q67 54 166 54q90 0 157 -56 q72 -59 72 -147q0 -95 -90 -152q154 -54 154 -217q0 -121 -87.5 -198.5t-209.5 -77.5q-210 0 -277 155q-22 49 -22 111zM395 -29l881 1514h143l-878 -1514h-146zM1135 141v105l403 569h129v-569h92v-105h-92v-141h-129v141h-403zM1264 246h274v401z" />
<glyph unicode="&#xbf;" horiz-adv-x="995" d="M92 397q0 178 175 353l12 12q83 83 119 159t36 154h203q0 -202 -143 -375q-16 -19 -36 -40l-32 -32q-123 -122 -123 -229q0 -105 67 -169t173 -64q104 0 165 76q56 70 56 175l198 1q0 -191 -123 -319t-313 -128q-186 0 -310 120.5t-124 305.5zM440 1221v235h197v-235 h-197z" />
<glyph unicode="&#xc0;" horiz-adv-x="1233" d="M-63 0l569 1456h205l569 -1456h-231l-160 424h-565l-164 -424h-223zM346 1939h201l204 -348h-120zM399 629h414l-205 553z" />
<glyph unicode="&#xc1;" horiz-adv-x="1233" d="M-63 0l569 1456h205l569 -1456h-231l-160 424h-565l-164 -424h-223zM399 629h414l-205 553zM465 1591l204 348h201l-285 -348h-120z" />
<glyph unicode="&#xc2;" horiz-adv-x="1233" d="M-63 0l569 1456h205l569 -1456h-231l-160 424h-565l-164 -424h-223zM313 1591l197 348h196l197 -348h-123l-172 229l-174 -229h-121zM399 629h414l-205 553z" />
<glyph unicode="&#xc3;" horiz-adv-x="1233" d="M-63 0l569 1456h205l569 -1456h-231l-160 424h-565l-164 -424h-223zM315 1636q37 207 193 207q23 0 32 -2l27 -6l99 -29l28 -6l25 -2q30 -2 56 17q23 16 38 53h88q-20 -101 -70 -154q-55 -58 -127 -53l-31 2l-34 8l-97 27l-26 6l-23 2q-27 2 -51 -16.5t-39 -53.5h-88z M399 629h414l-205 553z" />
<glyph unicode="&#xc4;" horiz-adv-x="1233" d="M-63 0l569 1456h205l569 -1456h-231l-160 424h-565l-164 -424h-223zM338 1650v209h184v-209h-184zM399 629h414l-205 553zM694 1650v209h184v-209h-184z" />
<glyph unicode="&#xc5;" horiz-adv-x="1233" d="M-63 0l567 1448h207l569 -1448h-236l-155 424h-565l-164 -424h-223zM367 1739q0 98 67.5 165.5t165.5 67.5t166 -67.5t68 -165.5q0 -97 -68.5 -165.5t-165.5 -68.5q-98 0 -165.5 68t-67.5 166zM399 629h414l-207 553zM485 1741q0 -50 33.5 -84.5t83.5 -34.5t85.5 34.5 t35.5 84.5q0 48 -36.5 84.5t-84.5 36.5q-47 0 -82 -37t-35 -84z" />
<glyph unicode="&#xc6;" horiz-adv-x="1720" d="M-123 0l807 1456h905v-194h-547v-435h547v-190h-547v-436h547v-201h-755v406h-502l-221 -406h-234zM444 606h390v656h-33z" />
<glyph unicode="&#xc7;" horiz-adv-x="1540" d="M61 737q0 311 228 537q213 211 514 211q221 0 388 -102q173 -106 261 -304h-248q-140 195 -403 195q-213 0 -361 -152q-159 -163 -159 -387q0 -238 147 -391q158 -164 373 -164q255 0 391 185h260q-195 -394 -651 -394h-10v-73h29q223 0 223 -181q0 -188 -250 -188 q-103 0 -258 45v100q167 -39 246 -39q121 0 121 82q0 86 -134 86h-31l-22 -1v174q-112 10 -217 58q-135 62 -248 187q-189 209 -189 516z" />
<glyph unicode="&#xc8;" horiz-adv-x="1014" d="M127 0v1456h756v-194h-545v-435h545v-190h-545v-436h545v-201h-756zM242 1939h201l204 -348h-120z" />
<glyph unicode="&#xc9;" horiz-adv-x="1014" d="M127 0v1456h756v-194h-545v-435h545v-190h-545v-436h545v-201h-756zM361 1591l204 348h201l-285 -348h-120z" />
<glyph unicode="&#xca;" horiz-adv-x="1014" d="M127 0v1456h756v-194h-545v-435h545v-190h-545v-436h545v-201h-756zM209 1591l197 348h196l197 -348h-123l-172 229l-174 -229h-121z" />
<glyph unicode="&#xcb;" horiz-adv-x="1014" d="M127 0v1456h756v-194h-545v-435h545v-190h-545v-436h545v-201h-756zM234 1650v209h184v-209h-184zM590 1650v209h184v-209h-184z" />
<glyph unicode="&#xcc;" horiz-adv-x="465" d="M-29 1939h201l204 -348h-120zM127 0v1456h211v-1456h-211z" />
<glyph unicode="&#xcd;" horiz-adv-x="465" d="M90 1591l204 348h201l-285 -348h-120zM127 0v1456h211v-1456h-211z" />
<glyph unicode="&#xce;" horiz-adv-x="465" d="M-62 1591l197 348h196l197 -348h-123l-172 229l-174 -229h-121zM127 0v1456h211v-1456h-211z" />
<glyph unicode="&#xcf;" horiz-adv-x="465" d="M-37 1650v209h184v-209h-184zM127 0v1456h211v-1456h-211zM319 1650v209h184v-209h-184z" />
<glyph unicode="&#xd0;" horiz-adv-x="1612" d="M61 737q0 312 228 537q214 211 528 211q218 0 382 -100q171 -103 257 -298h-260q-144 187 -395 187q-213 0 -361 -152q-159 -163 -159 -387q0 -238 147 -391q158 -164 373 -164q333 0 502 350h-660v205h901q0 -326 -221 -553q-206 -211 -522 -211q-325 0 -551 250 q-189 209 -189 516zM516 1904h109q0 -69 49 -106q43 -33 133 -33q132 0 170 78q12 26 12 61h109q0 -134 -81 -211q-70 -67 -210 -67q-205 0 -269 155q-22 53 -22 123z" />
<glyph unicode="&#xd1;" horiz-adv-x="1384" d="M127 0v1456h217l715 -1102l-10 1102h208v-1456h-202l-731 1135l14 -1135h-211zM399 1636q37 207 193 207q23 0 32 -2l27 -6l99 -29l28 -6l25 -2q30 -2 56 17q23 16 38 53h88q-20 -101 -70 -154q-55 -58 -127 -53l-31 2l-34 8l-97 27l-26 6l-23 2q-27 2 -51 -16.5 t-39 -53.5h-88z" />
<glyph unicode="&#xd2;" horiz-adv-x="1612" d="M61 737q0 313 228 537q215 211 514 211q303 0 522 -213q223 -217 223 -535q0 -311 -192 -520q-226 -246 -555 -246q-325 0 -551 250q-189 209 -189 516zM281 735q0 -238 147 -391q158 -164 373 -164q232 0 383 165q147 160 147 394q0 206 -143 361q-160 174 -387 174 q-213 0 -361 -152q-159 -163 -159 -387zM545 1939h201l204 -348h-120z" />
<glyph unicode="&#xd3;" horiz-adv-x="1612" d="M61 737q0 313 228 537q215 211 514 211q303 0 522 -213q223 -217 223 -535q0 -311 -192 -520q-226 -246 -555 -246q-325 0 -551 250q-189 209 -189 516zM281 735q0 -238 147 -391q158 -164 373 -164q232 0 383 165q147 160 147 394q0 206 -143 361q-160 174 -387 174 q-213 0 -361 -152q-159 -163 -159 -387zM664 1591l204 348h201l-285 -348h-120z" />
<glyph unicode="&#xd4;" horiz-adv-x="1612" d="M61 737q0 313 228 537q215 211 514 211q303 0 522 -213q223 -217 223 -535q0 -311 -192 -520q-226 -246 -555 -246q-325 0 -551 250q-189 209 -189 516zM281 735q0 -238 147 -391q158 -164 373 -164q232 0 383 165q147 160 147 394q0 206 -143 361q-160 174 -387 174 q-213 0 -361 -152q-159 -163 -159 -387zM512 1591l197 348h196l197 -348h-123l-172 229l-174 -229h-121z" />
<glyph unicode="&#xd5;" horiz-adv-x="1612" d="M61 737q0 313 228 537q215 211 514 211q303 0 522 -213q223 -217 223 -535q0 -311 -192 -520q-226 -246 -555 -246q-325 0 -551 250q-189 209 -189 516zM281 735q0 -238 147 -391q158 -164 373 -164q232 0 383 165q147 160 147 394q0 206 -143 361q-160 174 -387 174 q-213 0 -361 -152q-159 -163 -159 -387zM514 1636q37 207 193 207q23 0 32 -2l27 -6l99 -29l28 -6l25 -2q30 -2 56 17q23 16 38 53h88q-20 -101 -70 -154q-55 -58 -127 -53l-31 2l-34 8l-97 27l-26 6l-23 2q-27 2 -51 -16.5t-39 -53.5h-88z" />
<glyph unicode="&#xd6;" horiz-adv-x="1612" d="M61 737q0 313 228 537q215 211 514 211q303 0 522 -213q223 -217 223 -535q0 -311 -192 -520q-226 -246 -555 -246q-325 0 -551 250q-189 209 -189 516zM281 735q0 -238 147 -391q158 -164 373 -164q232 0 383 165q147 160 147 394q0 206 -143 361q-160 174 -387 174 q-213 0 -361 -152q-159 -163 -159 -387zM537 1650v209h184v-209h-184zM893 1650v209h184v-209h-184z" />
<glyph unicode="&#xd7;" horiz-adv-x="1706" d="M293 141l469 469l-469 469l98 99l469 -469l469 469l98 -99l-469 -469l469 -469l-98 -96l-469 467l-469 -467z" />
<glyph unicode="&#xd8;" horiz-adv-x="1612" d="M14 -33l224 264q-177 225 -177 506q0 310 228 537q210 209 514 209q240 0 407 -119l193 221l133 -108l-193 -228q205 -207 205 -512q0 -311 -192 -520q-226 -246 -568 -246q-233 0 -417 138l-224 -259zM279 719q0 -178 102 -322l688 801q-86 53 -197 71q-34 5 -71 5 q-226 0 -377 -166q-145 -160 -145 -389zM510 272q144 -92 291 -92q232 0 383 165q147 160 147 394q0 199 -131 342z" />
<glyph unicode="&#xd9;" horiz-adv-x="1157" d="M113 532v924h211v-926q0 -174 43 -250q59 -102 217 -102q151 0 207 106q40 77 40 246v926h211v-924q0 -257 -71 -364q-131 -197 -383 -197q-139 0 -235.5 47t-166.5 148q-73 106 -73 366zM318 1939h201l204 -348h-120z" />
<glyph unicode="&#xda;" horiz-adv-x="1157" d="M113 532v924h211v-926q0 -174 43 -250q59 -102 217 -102q151 0 207 106q40 77 40 246v926h211v-924q0 -257 -71 -364q-131 -197 -383 -197q-139 0 -235.5 47t-166.5 148q-73 106 -73 366zM437 1591l204 348h201l-285 -348h-120z" />
<glyph unicode="&#xdb;" horiz-adv-x="1157" d="M113 532v924h211v-926q0 -174 43 -250q59 -102 217 -102q151 0 207 106q40 77 40 246v926h211v-924q0 -257 -71 -364q-131 -197 -383 -197q-139 0 -235.5 47t-166.5 148q-73 106 -73 366zM285 1591l197 348h196l197 -348h-123l-172 229l-174 -229h-121z" />
<glyph unicode="&#xdc;" horiz-adv-x="1157" d="M113 532v924h211v-926q0 -174 43 -250q59 -102 217 -102q151 0 207 106q40 77 40 246v926h211v-924q0 -257 -71 -364q-131 -197 -383 -197q-139 0 -235.5 47t-166.5 148q-73 106 -73 366zM310 1650v209h184v-209h-184zM666 1650v209h184v-209h-184z" />
<glyph unicode="&#xdd;" horiz-adv-x="465" d="M127 0v1456h211v-1456h-211zM137 1644v222h192v-222h-192z" />
<glyph unicode="&#xde;" horiz-adv-x="973" d="M50 420h189q0 -108 67 -181q61 -67 161 -67q111 0 175.5 68.5t64.5 179.5q0 99 -47 153q-57 63 -202 101l-27 7q-251 65 -319 264q-20 57 -20 120q0 184 109.5 301t292.5 117q166 0 269 -104q114 -115 114 -283h-197q0 80 -59 140q-53 54 -134 54q-90 0 -144 -63 q-52 -59 -52 -150q0 -67 42 -117t183 -87q33 -8 100 -29q293 -111 293 -404q0 -209 -119 -339t-303 -130v-73h29q223 0 223 -181q0 -188 -250 -188q-103 0 -258 45v100q167 -39 246 -39q121 0 121 82q0 86 -134 86h-31l-22 -1v172q-147 18 -243 120q-118 125 -118 326z" />
<glyph unicode="&#xdf;" horiz-adv-x="1200" d="M115 0v969q0 508 411 508q185 0 302 -107q120 -111 120 -295q0 -192 -131 -260q320 -87 320 -397q0 -188 -119 -316q-123 -131 -309 -131q-278 0 -402 262v-233h-192zM307 381h158q19 -94 76 -153q63 -66 153 -66q99 0 171.5 73.5t72.5 172.5q0 128 -86 192 q-94 69 -260 64l-32 -1l-52 -3v171h4q109 0 172.5 61.5t63.5 170.5q0 96 -60 161.5t-156 65.5q-133 0 -185 -95q-40 -72 -40 -218v-596z" />
<glyph unicode="&#xe0;" horiz-adv-x="1319" d="M61 555q0 237 158 403q162 170 406 170q226 0 381 -161v133h200v-1100h-200v135q-154 -160 -369 -160q-249 0 -412.5 165t-163.5 415zM266 557q0 -165 108.5 -279t272.5 -114q149 0 259 115t110 264q0 158 -108 275.5t-265 117.5q-159 0 -268 -110t-109 -269zM447 1589 h201l204 -348h-120z" />
<glyph unicode="&#xe1;" horiz-adv-x="1319" d="M61 555q0 237 158 403q162 170 406 170q226 0 381 -161v133h200v-1100h-200v135q-154 -160 -369 -160q-249 0 -412.5 165t-163.5 415zM266 557q0 -165 108.5 -279t272.5 -114q149 0 259 115t110 264q0 158 -108 275.5t-265 117.5q-159 0 -268 -110t-109 -269zM566 1241 l204 348h201l-285 -348h-120z" />
<glyph unicode="&#xe2;" horiz-adv-x="1319" d="M61 555q0 237 158 403q162 170 406 170q226 0 381 -161v133h200v-1100h-200v135q-154 -160 -369 -160q-249 0 -412.5 165t-163.5 415zM266 557q0 -165 108.5 -279t272.5 -114q149 0 259 115t110 264q0 158 -108 275.5t-265 117.5q-159 0 -268 -110t-109 -269zM414 1241 l197 348h196l197 -348h-123l-172 229l-174 -229h-121z" />
<glyph unicode="&#xe3;" horiz-adv-x="1319" d="M61 555q0 237 158 403q162 170 406 170q226 0 381 -161v133h200v-1100h-200v135q-154 -160 -369 -160q-249 0 -412.5 165t-163.5 415zM266 557q0 -165 108.5 -279t272.5 -114q149 0 259 115t110 264q0 158 -108 275.5t-265 117.5q-159 0 -268 -110t-109 -269zM416 1286 q37 207 193 207q23 0 32 -2l27 -6l99 -29l28 -6l25 -2q30 -2 56 17q23 16 38 53h88q-20 -101 -70 -154q-55 -58 -127 -53l-31 2l-34 8l-97 27l-26 6l-23 2q-27 2 -51 -16.5t-39 -53.5h-88z" />
<glyph unicode="&#xe4;" horiz-adv-x="1319" d="M61 555q0 237 158 403q162 170 406 170q226 0 381 -161v133h200v-1100h-200v135q-154 -160 -369 -160q-249 0 -412.5 165t-163.5 415zM266 557q0 -165 108.5 -279t272.5 -114q149 0 259 115t110 264q0 158 -108 275.5t-265 117.5q-159 0 -268 -110t-109 -269zM439 1300 v209h184v-209h-184zM795 1300v209h184v-209h-184z" />
<glyph unicode="&#xe5;" horiz-adv-x="1319" d="M61 555q0 237 158 403q162 170 406 170q226 0 381 -161v133h200v-1100h-200v135q-154 -160 -369 -160q-249 0 -412.5 165t-163.5 415zM266 557q0 -165 108.5 -279t272.5 -114q149 0 259 115t110 264q0 158 -108 275.5t-265 117.5q-159 0 -268 -110t-109 -269zM479 1417 q0 99 67.5 166.5t166.5 67.5q97 0 165 -68.5t68 -165.5t-68 -164t-165 -67q-99 0 -166.5 66t-67.5 165zM596 1421q0 -49 35 -83.5t84 -34.5t84 34.5t35 83.5q0 48 -35.5 83.5t-83.5 35.5q-49 0 -84 -35t-35 -84z" />
<glyph unicode="&#xe6;" horiz-adv-x="2191" d="M61 555q0 237 158 403q167 175 406 175q221 0 383 -166v133h176v-125q170 158 389 158q294 0 465 -256q46 -69 71 -165q23 -89 23 -204v-31h-924q24 -137 122.5 -224t236.5 -87q205 0 309 182h221q-155 -377 -528 -377q-225 0 -385 152v-123h-178v135 q-162 -164 -369 -164q-250 0 -413 166.5t-163 417.5zM266 557q0 -165 108.5 -278t272.5 -113q150 0 259.5 113t109.5 264q0 158 -107 276q-110 121 -266 121q-158 0 -267.5 -112.5t-109.5 -270.5zM1219 655h702q-35 132 -122 206q-91 79 -224 79t-227 -77t-129 -208z" />
<glyph unicode="&#xe7;" horiz-adv-x="1241" d="M57 549q0 232 156 399q172 185 418 185q193 0 332 -108q135 -104 198 -290h-217q-101 201 -330 201q-154 0 -255 -117q-97 -112 -97 -268q0 -162 100 -271q103 -114 263 -114q220 0 319 209h217q-142 -404 -536 -404h-4v-73h29q223 0 223 -181q0 -188 -250 -188 q-103 0 -258 45v100q167 -39 246 -39q121 0 121 82q0 86 -134 86h-31l-22 -1v174q-190 22 -324 165q-79 84 -121.5 189t-42.5 219z" />
<glyph unicode="&#xe8;" horiz-adv-x="1245" d="M55 551q0 230 156 401q165 181 410 181q304 0 475 -256q46 -69 71 -165q23 -89 23 -204v-31h-926q24 -137 123.5 -223t237.5 -86q207 0 307 180h223q-155 -377 -530 -377q-243 0 -406 172q-78 82 -121 188t-43 220zM270 655h703q-35 132 -122 206q-91 79 -224 79 t-228 -79q-92 -75 -129 -206zM371 1589h201l204 -348h-120z" />
<glyph unicode="&#xe9;" horiz-adv-x="1245" d="M55 551q0 230 156 401q165 181 410 181q304 0 475 -256q46 -69 71 -165q23 -89 23 -204v-31h-926q24 -137 123.5 -223t237.5 -86q207 0 307 180h223q-155 -377 -530 -377q-243 0 -406 172q-78 82 -121 188t-43 220zM270 655h703q-35 132 -122 206q-91 79 -224 79 t-228 -79q-92 -75 -129 -206zM490 1241l204 348h201l-285 -348h-120z" />
<glyph unicode="&#xea;" horiz-adv-x="1245" d="M55 551q0 230 156 401q165 181 410 181q304 0 475 -256q46 -69 71 -165q23 -89 23 -204v-31h-926q24 -137 123.5 -223t237.5 -86q207 0 307 180h223q-155 -377 -530 -377q-243 0 -406 172q-78 82 -121 188t-43 220zM270 655h703q-35 132 -122 206q-91 79 -224 79 t-228 -79q-92 -75 -129 -206zM338 1241l197 348h196l197 -348h-123l-172 229l-174 -229h-121z" />
<glyph unicode="&#xeb;" horiz-adv-x="1245" d="M55 551q0 230 156 401q165 181 410 181q304 0 475 -256q46 -69 71 -165q23 -89 23 -204v-31h-926q24 -137 123.5 -223t237.5 -86q207 0 307 180h223q-155 -377 -530 -377q-243 0 -406 172q-78 82 -121 188t-43 220zM270 655h703q-35 132 -122 206q-91 79 -224 79 t-228 -79q-92 -75 -129 -206zM363 1300v209h184v-209h-184zM719 1300v209h184v-209h-184z" />
<glyph unicode="&#xec;" horiz-adv-x="432" d="M-45 1589h201l204 -348h-120zM117 0v1100h196v-1100h-196z" />
<glyph unicode="&#xed;" horiz-adv-x="432" d="M74 1241l204 348h201l-285 -348h-120zM117 0v1100h196v-1100h-196z" />
<glyph unicode="&#xee;" horiz-adv-x="432" d="M-78 1241l197 348h196l197 -348h-123l-172 229l-174 -229h-121zM117 0v1100h196v-1100h-196z" />
<glyph unicode="&#xef;" horiz-adv-x="432" d="M-53 1300v209h184v-209h-184zM117 0v1100h196v-1100h-196zM303 1300v209h184v-209h-184z" />
<glyph unicode="&#xf0;" horiz-adv-x="1319" d="M61 555q0 237 158 403q162 170 406 170q224 0 383 -161v133h198v-918q0 -277 -139 -439q-148 -173 -420 -173q-183 0 -316 85q-137 89 -198 257h211q92 -158 291 -158q168 0 269.5 100t101.5 267v14q-154 -160 -369 -160q-249 0 -412.5 165t-163.5 415zM266 557 q0 -165 108.5 -279t272.5 -114q149 0 259 115t110 264q0 158 -108 275.5t-265 117.5q-159 0 -268 -110t-109 -269zM368 1554h109q0 -69 49 -106q43 -33 133 -33q132 0 170 78q12 26 12 61h109q0 -134 -81 -211q-70 -67 -210 -67q-205 0 -269 155q-22 53 -22 123z" />
<glyph unicode="&#xf1;" horiz-adv-x="1176" d="M117 0v1100h190v-125q120 143 307 143q224 0 339 -136q108 -126 108 -355v-627h-199v584q0 344 -266 344q-169 0 -235 -138q-46 -97 -46 -290v-500h-198zM307 1286q37 207 193 207q23 0 32 -2l27 -6l99 -29l28 -6l25 -2q30 -2 56 17q23 16 38 53h88q-20 -101 -70 -154 q-55 -58 -127 -53l-31 2l-34 8l-97 27l-26 6l-23 2q-27 2 -51 -16.5t-39 -53.5h-88z" />
<glyph unicode="&#xf2;" horiz-adv-x="1241" d="M53 549q0 238 158 404q172 182 401 182q242 0 409 -171t167 -401q0 -309 -242 -486q-53 -39 -101 -61q-102 -47 -222 -47q-243 0 -406 172q-78 82 -121 188t-43 220zM258 551q0 -162 101 -272q103 -113 264 -113q159 0 261 115q99 111 99 272q0 163 -99 272 q-102 113 -263 113q-159 0 -263 -115q-100 -111 -100 -272zM363 1589h201l204 -348h-120z" />
<glyph unicode="&#xf3;" horiz-adv-x="1241" d="M53 549q0 238 158 404q172 182 401 182q242 0 409 -171t167 -401q0 -309 -242 -486q-53 -39 -101 -61q-102 -47 -222 -47q-243 0 -406 172q-78 82 -121 188t-43 220zM258 551q0 -162 101 -272q103 -113 264 -113q159 0 261 115q99 111 99 272q0 163 -99 272 q-102 113 -263 113q-159 0 -263 -115q-100 -111 -100 -272zM482 1241l204 348h201l-285 -348h-120z" />
<glyph unicode="&#xf4;" horiz-adv-x="1241" d="M53 549q0 238 158 404q172 182 401 182q242 0 409 -171t167 -401q0 -309 -242 -486q-53 -39 -101 -61q-102 -47 -222 -47q-243 0 -406 172q-78 82 -121 188t-43 220zM258 551q0 -162 101 -272q103 -113 264 -113q159 0 261 115q99 111 99 272q0 163 -99 272 q-102 113 -263 113q-159 0 -263 -115q-100 -111 -100 -272zM330 1241l197 348h196l197 -348h-123l-172 229l-174 -229h-121z" />
<glyph unicode="&#xf5;" horiz-adv-x="1241" d="M53 549q0 238 158 404q172 182 401 182q242 0 409 -171t167 -401q0 -309 -242 -486q-53 -39 -101 -61q-102 -47 -222 -47q-243 0 -406 172q-78 82 -121 188t-43 220zM258 551q0 -162 101 -272q103 -113 264 -113q159 0 261 115q99 111 99 272q0 163 -99 272 q-102 113 -263 113q-159 0 -263 -115q-100 -111 -100 -272zM332 1286q37 207 193 207q23 0 32 -2l27 -6l99 -29l28 -6l25 -2q30 -2 56 17q23 16 38 53h88q-20 -101 -70 -154q-55 -58 -127 -53l-31 2l-34 8l-97 27l-26 6l-23 2q-27 2 -51 -16.5t-39 -53.5h-88z" />
<glyph unicode="&#xf6;" horiz-adv-x="1241" d="M53 549q0 238 158 404q172 182 401 182q242 0 409 -171t167 -401q0 -309 -242 -486q-53 -39 -101 -61q-102 -47 -222 -47q-243 0 -406 172q-78 82 -121 188t-43 220zM258 551q0 -162 101 -272q103 -113 264 -113q159 0 261 115q99 111 99 272q0 163 -99 272 q-102 113 -263 113q-159 0 -263 -115q-100 -111 -100 -272zM355 1300v209h184v-209h-184zM711 1300v209h184v-209h-184z" />
<glyph unicode="&#xf7;" horiz-adv-x="1706" d="M254 541v139h1198v-139h-1198zM729 242q0 51 37 88t88 37t88 -37t37 -88q0 -52 -36.5 -88.5t-88.5 -36.5t-88.5 36.5t-36.5 88.5zM729 979q0 52 36.5 89.5t88.5 37.5t88.5 -37.5t36.5 -89.5q0 -51 -37 -88t-88 -37q-52 0 -88.5 36.5t-36.5 88.5z" />
<glyph unicode="&#xf8;" horiz-adv-x="1241" d="M33 -31l162 197q-140 172 -140 381q0 236 156 401q172 182 410 182q170 0 303 -90l161 197l125 -94l-166 -207q146 -170 146 -375q0 -237 -154 -407q-170 -187 -420 -187q-162 0 -301 90l-161 -194zM260 547q0 -121 66 -225l471 567q-88 47 -174 47q-159 0 -263 -116 q-100 -112 -100 -273zM444 209q82 -47 170 -47q170 0 273 115q98 110 98 282q0 116 -70 223z" />
<glyph unicode="&#xf9;" horiz-adv-x="1157" d="M111 467v633h198v-576q0 -356 252 -356q162 0 236 141q20 38 31 100q10 57 10 187v504h196v-1100h-190v123q-114 -148 -297 -148q-217 0 -331 140q-105 130 -105 352zM311 1589h201l204 -348h-120z" />
<glyph unicode="&#xfa;" horiz-adv-x="1157" d="M111 467v633h198v-576q0 -356 252 -356q162 0 236 141q20 38 31 100q10 57 10 187v504h196v-1100h-190v123q-114 -148 -297 -148q-217 0 -331 140q-105 130 -105 352zM430 1241l204 348h201l-285 -348h-120z" />
<glyph unicode="&#xfb;" horiz-adv-x="1157" d="M111 467v633h198v-576q0 -356 252 -356q162 0 236 141q20 38 31 100q10 57 10 187v504h196v-1100h-190v123q-114 -148 -297 -148q-217 0 -331 140q-105 130 -105 352zM278 1241l197 348h196l197 -348h-123l-172 229l-174 -229h-121z" />
<glyph unicode="&#xfc;" horiz-adv-x="1157" d="M111 467v633h198v-576q0 -356 252 -356q162 0 236 141q20 38 31 100q10 57 10 187v504h196v-1100h-190v123q-114 -148 -297 -148q-217 0 -331 140q-105 130 -105 352zM303 1300v209h184v-209h-184zM659 1300v209h184v-209h-184z" />
<glyph unicode="&#xfd;" horiz-adv-x="432" d="M117 0v1100h196v-1100h-196z" />
<glyph unicode="&#xfe;" horiz-adv-x="797" d="M41 356h186q0 -82 43 -138q48 -62 127 -62q68 0 113 41.5t45 109.5q0 57 -30 97q-34 43 -103 69l-68 26q-118 45 -149 70q-115 92 -115 244q0 135 93.5 228.5t228.5 93.5q215 0 291 -183q24 -58 24 -131h-190q0 56 -40 95q-35 34 -94 34q-53 0 -88.5 -37t-35.5 -90 q0 -90 160 -151l71 -27q122 -46 179 -126q54 -76 54 -204q0 -147 -99.5 -245.5t-244.5 -98.5v-73h29q223 0 223 -181q0 -188 -250 -188q-103 0 -258 45v100q167 -39 246 -39q121 0 121 82q0 86 -134 86h-31l-22 -1v175q-181 30 -255 221q-27 70 -27 158z" />
<glyph unicode="&#xff;" horiz-adv-x="1049" d="M6 1100h213l297 -819l322 819h213l-592 -1456h-209l153 387zM254 1300v209h184v-209h-184zM610 1300v209h184v-209h-184z" />
<glyph unicode="&#x152;" horiz-adv-x="2179" d="M61 737q0 310 222 537q206 211 497 211q307 0 512 -217v188h756v-194h-545v-435h545v-190h-545v-436h545v-201h-756v188q-203 -217 -514 -217q-317 0 -534 250q-183 211 -183 516zM274 735q0 -235 145 -392q150 -163 359 -163q227 0 374 168q140 160 140 391 q0 211 -137 365q-74 83 -172 128q-94 42 -205 42q-156 0 -282 -94q-121 -90 -180 -237q-42 -103 -42 -208z" />
<glyph unicode="&#x153;" horiz-adv-x="2163" d="M55 547q0 235 158 405q168 181 401 181q295 0 467 -244q182 244 451 244q266 0 424 -183q149 -174 149 -444v-29h-923q24 -139 121.5 -226t236.5 -87q101 0 181 47.5t128 132.5h222q-159 -373 -529 -373q-293 0 -461 240q-175 -240 -456 -240q-244 0 -407 171t-163 405z M260 549q0 -162 101 -272q103 -113 264 -113q159 0 261 115q99 111 99 272q0 163 -98 274q-103 115 -264 115q-160 0 -264 -117q-99 -112 -99 -274zM1188 655h702q-35 132 -122 206q-91 79 -224 79q-132 0 -226.5 -77.5t-129.5 -207.5z" />
<glyph unicode="&#x178;" horiz-adv-x="1010" d="M-49 1456h235l320 -700l319 700h234l-451 -932v-524h-211v537zM236 1650v209h184v-209h-184zM592 1650v209h184v-209h-184z" />
<glyph unicode="&#x2c6;" d="M217 1241l197 348h196l197 -348h-123l-172 229l-174 -229h-121z" />
<glyph unicode="&#x2dc;" d="M219 1286q37 207 193 207q23 0 32 -2l27 -6l99 -29l28 -6l25 -2q30 -2 56 17q23 16 38 53h88q-20 -101 -70 -154q-55 -58 -127 -53l-31 2l-34 8l-97 27l-26 6l-23 2q-27 2 -51 -16.5t-39 -53.5h-88z" />
<glyph unicode="&#x2000;" horiz-adv-x="986" />
<glyph unicode="&#x2001;" horiz-adv-x="1972" />
<glyph unicode="&#x2002;" horiz-adv-x="986" />
<glyph unicode="&#x2003;" horiz-adv-x="1972" />
<glyph unicode="&#x2004;" horiz-adv-x="657" />
<glyph unicode="&#x2005;" horiz-adv-x="493" />
<glyph unicode="&#x2006;" horiz-adv-x="328" />
<glyph unicode="&#x2007;" horiz-adv-x="328" />
<glyph unicode="&#x2008;" horiz-adv-x="246" />
<glyph unicode="&#x2009;" horiz-adv-x="394" />
<glyph unicode="&#x200a;" horiz-adv-x="109" />
<glyph unicode="&#x2010;" horiz-adv-x="678" d="M90 457v184h498v-184h-498z" />
<glyph unicode="&#x2011;" horiz-adv-x="678" d="M90 457v184h498v-184h-498z" />
<glyph unicode="&#x2012;" horiz-adv-x="678" d="M90 457v184h498v-184h-498z" />
<glyph unicode="&#x2013;" d="M0 477v144h1024v-144h-1024z" />
<glyph unicode="&#x2014;" horiz-adv-x="2048" d="M0 477v144h2048v-144h-2048z" />
<glyph unicode="&#x2018;" horiz-adv-x="473" d="M135 991v217q0 120 43 182q47 67 160 95v-133q-70 -20 -70 -101v-18h70v-242h-203z" />
<glyph unicode="&#x2019;" horiz-adv-x="473" d="M135 963v131q70 17 70 100v18h-70v244h203v-217q0 -120 -43 -182q-47 -67 -160 -94z" />
<glyph unicode="&#x201a;" horiz-adv-x="473" d="M135 2v244h203v-217q0 -120 -43 -182q-47 -67 -160 -95v131q70 20 70 101v18h-70z" />
<glyph unicode="&#x201c;" horiz-adv-x="807" d="M135 991v217q0 120 43 182q47 67 160 95v-133q-70 -20 -70 -101v-18h70v-242h-203zM467 991v217q0 120 43 182q47 67 160 95v-133q-70 -20 -70 -101v-18h70v-242h-203z" />
<glyph unicode="&#x201d;" horiz-adv-x="807" d="M135 963v131q70 17 70 100v18h-70v244h203v-217q0 -120 -43 -182q-47 -67 -160 -94zM467 963v131q70 17 70 100v18h-70v244h203v-217q0 -120 -43 -182q-47 -67 -160 -94z" />
<glyph unicode="&#x201e;" horiz-adv-x="807" d="M135 2v244h203v-217q0 -120 -43 -182q-47 -67 -160 -95v131q70 20 70 101v18h-70zM467 2v244h203v-217q0 -120 -43 -182q-47 -67 -160 -95v131q70 20 70 101v18h-70z" />
<glyph unicode="&#x2022;" horiz-adv-x="1208" d="M307 762q0 123 87 209t210 86q122 0 208.5 -86.5t86.5 -208.5q0 -123 -87 -210t-210 -87t-209 87t-86 210z" />
<glyph unicode="&#x2026;" horiz-adv-x="2048" d="M242 0v246h200v-246h-200zM924 0v246h200v-246h-200zM1608 0v246h200v-246h-200z" />
<glyph unicode="&#x202f;" horiz-adv-x="394" />
<glyph unicode="&#x2039;" horiz-adv-x="678" d="M127 551l248 311h149l-241 -313l241 -311h-149z" />
<glyph unicode="&#x203a;" horiz-adv-x="678" d="M154 238l241 311l-241 313h149l248 -311l-248 -313h-149z" />
<glyph unicode="&#x205f;" horiz-adv-x="493" />
<glyph unicode="&#x2122;" horiz-adv-x="1706" d="M242 1378v80h452v-80h-172v-458h-108v458h-172zM813 920v538h150l151 -385l141 385h150v-538h-98v444l-166 -444h-56l-174 444v-444h-98z" />
<glyph unicode="&#xe000;" horiz-adv-x="1100" d="M0 0v1100h1100v-1100h-1100z" />
</font>
</defs>
</svg>
